# xmcd CD database file
#
# Track frame offsets:
#	150
#	20013
#	42259
#	62486
#	83475
#	100585
#	132165
#	155679
#	178327
#	203917
#	234202
#	254899
#	270421
#
# Disc length: 3792 seconds
#
# Revision: 0
# Processed by: cddbd v1.5.2PL0 Copyright (c) Steve Scherf et al.
# Submitted via: CDex 1.51
#
DISCID=ab0ece0d
DTITLE=Sam Cockrell and The Groove - I'm In The Business
DYEAR=1900
DGENRE=Blues
TTITLE0=Why You Wanna Treat Me So Mean
TTITLE1=Caught In The Act
TTITLE2=I Can't Stand Being Alone
TTITLE3=Having A Good Time
TTITLE4=I'm In The Business
TTITLE5=I Know You Still Care About Me
TTITLE6=I'm Gonna Keep On Trying
TTITLE7=Why Did You Lie
TTITLE8=Give It Up
TTITLE9=Girl You Know You Really Hurt Me
TTITLE10=Boom-Boom-Boom-Boom
TTITLE11=All Night Long
TTITLE12=When They All Showed Up
EXTD=
EXTT0=
EXTT1=
EXTT2=
EXTT3=
EXTT4=
EXTT5=
EXTT6=
EXTT7=
EXTT8=
EXTT9=
EXTT10=
EXTT11=
EXTT12=
PLAYORDER=
